<svg xmlns="http://www.w3.org/2000/svg" xml:space="preserve" width="264" height="264"><path d="M1979.98 0H0v1979.98h1979.98V0" style="fill:#fff;fill-opacity:1;fill-rule:nonzero;stroke:none" transform="matrix(.13333 0 0 -.13333 0 264)"/><path d="M1979.98 0H0v989.988h1979.98V0M947.121 1703.17l-95.105-444.62H736.992l95.11 444.62zm483.919-287.1 60.54 166.97 34.84-166.97zm128.38-157.52h106.36l-92.92 444.62h-98.11c-22.11 0-40.75-12.82-49-32.6l-172.6-412.02h120.81l23.98 66.41h147.55zm-300.27 145.16c.5 117.33-162.21 123.84-161.12 176.27.35 15.93 15.54 32.9 48.77 37.23 16.47 2.13 61.92 3.84 113.44-19.89l20.15 94.32c-27.67 10-63.28 19.65-107.59 19.65-113.71 0-193.702-60.4-194.343-146.97-.727-64 57.143-99.69 100.653-121.01 44.86-21.79 59.89-35.77 59.67-55.24-.31-29.82-35.77-43.03-68.79-43.53-57.86-.9-91.396 15.64-118.131 28.1l-20.879-97.47c26.922-12.32 76.52-23.04 127.88-23.59 120.89 0 199.93 59.69 200.29 152.13m-476.384 299.46-186.375-444.62H474.816l-91.718 354.84c-5.559 21.81-10.407 29.84-27.317 39.06-27.66 15.02-73.324 29.07-113.472 37.81l2.714 12.91h195.731c24.93 0 47.355-16.59 53.066-45.31l48.446-257.3 119.66 302.61h120.84" style="fill:#1d337a;fill-opacity:1;fill-rule:nonzero;stroke:none" transform="matrix(.13333 0 0 -.13333 0 264)"/><path d="M461.254 441.68c12.996-7.668 33.312-14.328 54.297-14.328 25.984 0 40.637 12.328 40.637 30.648 0 16.988-11.325 26.98-39.641 37.301-37.305 13-60.957 32.98-60.957 64.961 0 36.976 30.644 64.617 79.617 64.617 24.316 0 41.965-5.328 53.629-10.988l-9.66-33.313c-8.332 4.332-23.985 10.66-44.973 10.66-25.98 0-36.973-13.66-36.973-26.976 0-17.332 12.989-25.321 42.969-36.641 38.977-14.992 57.629-34.652 57.629-66.621 0-36.309-27.316-67.289-84.941-67.289-23.985 0-48.633 6.66-60.957 13.98l9.324 33.989m295.828 54.961h-84.609V430.68h94.601v-33.641h-135.57v224.512h130.57V587.91h-89.601v-57.961h84.609v-33.308m203.559-92.942c-9.661-4.66-30.977-9.988-58.293-9.988-71.282 0-114.582 44.641-114.582 112.918 0 73.949 51.629 118.25 120.246 118.25 26.98 0 45.968-5.328 54.293-9.66l-8.657-32.641c-10.66 4.66-25.648 8.66-43.968 8.66-45.637 0-78.614-28.648-78.614-82.609 0-49.301 28.649-80.609 78.274-80.609 16.324 0 33.648 3.332 44.64 8l6.661-32.321m72.319 217.852v-130.91c0-43.969 18.32-64.282 45.97-64.282 29.64 0 47.3 20.313 47.3 64.282v130.91h40.97V493.309c0-69.289-35.64-99.93-89.6-99.93-51.97 0-85.612 28.973-85.612 99.59v128.582h40.972m218.54-102.262h24.32c27.66 0 44.65 14.652 44.65 36.973 0 24.316-16.99 35.976-43.64 35.976-13 0-21.32-1-25.33-2.008zm-40.62 98.93c15.64 3 38.3 4.992 61.95 4.992 32.31 0 53.97-5.32 69.28-17.992 12.32-10.321 19.32-25.969 19.32-45.297 0-28.973-19.65-48.621-40.96-55.961v-.992c16.31-6 25.98-21.649 31.31-43.297 7.32-27.992 13.32-53.973 17.65-62.633h-41.97c-3.34 6.66-9 24.981-15 52.961-6.66 29.32-16.98 38.641-40.29 39.309h-20.67v-92.27h-40.62v221.18m311.81-121.578h-84.61V430.68h94.6v-33.641h-135.57v224.512h130.57V587.91h-89.6v-57.961h84.61v-33.308" style="fill:#fff;fill-opacity:1;fill-rule:nonzero;stroke:none" transform="matrix(.13333 0 0 -.13333 0 264)"/></svg>